PathFileType	4	(X/Y/Z)	./resultDataOpenSim/trcMotMarkerGrf/sub09/qtm-03-08.trc
DataRate	CameraRate	NumFrames	NumMarkers	Units	OrigDataRate	OrigDataStartFrame	OrigNumFrames
250.000000	250.000000	11	24	m	250.000000	61	485
Frame#	Time	L.Toe.Tip			R.Toe.Tip			L.Ankle.Lat			R.Ankle.Lat			L.Ankle.Med			R.Ankle.Med			L.Heel			R.Heel			L.Knee.Lat			R.Knee.Lat			L.Knee.Med			R.Knee.Med			L.Thigh.Upper			R.Thigh.Upper			L.ASIS			R.ASIS			V.Sacral			L.Acromium			R.Acromium			C7			L.Elbow			R.Elbow			L.Wrist.Lat			R.Wrist.Lat
		X1	Y1	Z1	X2	Y2	Z2	X3	Y3	Z3	X4	Y4	Z4	X5	Y5	Z5	X6	Y6	Z6	X7	Y7	Z7	X8	Y8	Z8	X9	Y9	Z9	X10	Y10	Z10	X11	Y11	Z11	X12	Y12	Z12	X13	Y13	Z13	X14	Y14	Z14	X15	Y15	Z15	X16	Y16	Z16	X17	Y17	Z17	X18	Y18	Z18	X19	Y19	Z19	X20	Y20	Z20	X21	Y21	Z21	X22	Y22	Z22	X23	Y23	Z23	X24	Y24	Z24

61	0.24	-1.393387	0.078396862	-0.063378891	-0.63442872	0.040203287	0.1107782	-1.4158982	0.23345516	-0.10631233	-0.78093856	0.054549697	0.14427401	-1.3971762	0.21766856	-0.011246725	-0.77459942	0.090930167	0.052296104	-1.4779654	0.2788936	-0.060581287	-0.84932	0.031296276	0.096463358	-1.0468882	0.42383121	-0.11895766	-0.75549013	0.51008044	0.18996893	-1.0371757	0.40846388	0.0044209306	-0.77113068	0.49351949	0.063517322	-0.98868338	0.8278666	-0.13233477	-0.96590845	0.85889963	0.24082748	-0.89596368	0.91355688	-0.077552221	-0.89345463	0.94440842	0.16193929	-1.0632228	0.98212726	0.041879177	-0.89115322	1.3819533	-0.11620856	-0.93766579	1.3860985	0.21011257	-0.98104318	1.4348989	0.042995676	-0.99897128	1.0245695	-0.19136108	-1.0781884	1.0521346	0.28292928	-0.78017258	0.86485598	-0.18481566	-0.95870333	0.81141657	0.33068364
62	0.244	-1.3827559	0.081999727	-0.063913625	-0.63436656	0.040108045	0.11064571	-1.4046405	0.23714184	-0.10559575	-0.78103868	0.054486392	0.1443193	-1.3857655	0.2212836	-0.01080264	-0.77455154	0.090867104	0.052081552	-1.4663283	0.28296896	-0.059661705	-0.84932573	0.031367654	0.096475862	-1.0339671	0.42370157	-0.11849485	-0.75162788	0.50994384	0.18978318	-1.0267161	0.40842858	0.0055135206	-0.76826866	0.49341634	0.063614455	-0.98237346	0.82821303	-0.13156651	-0.96007246	0.85983808	0.24139855	-0.89029074	0.91430593	-0.076972573	-0.88768167	0.94520655	0.16252878	-1.0575358	0.98317332	0.042314283	-0.88493691	1.382607	-0.11580422	-0.9313509	1.3870181	0.21054291	-0.97420391	1.4357748	0.04420164	-0.99345023	1.0255619	-0.19066492	-1.0718637	1.0528228	0.28354364	-0.77666907	0.86333233	-0.18447832	-0.95104608	0.81254978	0.33094532
63	0.248	-1.3714121	0.08550392	-0.06438231	-0.63430576	0.040041052	0.11053852	-1.3931348	0.24063499	-0.10479282	-0.78132946	0.054470138	0.14453067	-1.3745319	0.22446697	-0.010102219	-0.77445565	0.090815457	0.051913072	-1.4546182	0.28664942	-0.058540044	-0.8493428	0.031432249	0.096441631	-1.0208562	0.42382658	-0.11829576	-0.74790445	0.50980552	0.18955072	-1.0159859	0.40855662	0.0066754475	-0.7655153	0.49324416	0.063773532	-0.97618943	0.82864862	-0.13087628	-0.95429553	0.86088163	0.24192566	-0.88477813	0.91511472	-0.076466613	-0.88193314	0.94608761	0.163052	-1.0517775	0.98427575	0.042814022	-0.87875876	1.3833061	-0.11543104	-0.92498252	1.3879802	0.21092815	-0.9679836	1.4367989	0.044514623	-0.98794545	1.0265584	-0.18993644	-1.0655381	1.0535906	0.284184	-0.77325293	0.86185212	-0.18418928	-0.94339828	0.81374683	0.33116854
64	0.252	-1.3594659	0.088814144	-0.064759229	-0.63424801	0.040002745	0.11043116	-1.3813762	0.24390669	-0.10392501	-0.781493	0.05449604	0.14458448	-1.3632789	0.22714298	-0.009147044	-0.77434201	0.090769112	0.051785852	-1.4428186	0.28993162	-0.05725618	-0.84939483	0.031518259	0.096374444	-1.0076743	0.42412833	-0.11812297	-0.74440254	0.50962645	0.18927116	-1.0039778	0.4088298	0.0079041546	-0.76286723	0.49300899	0.064012454	-0.97008303	0.82917529	-0.1302497	-0.94877508	0.86197771	0.24236018	-0.87928596	0.91600248	-0.07600324	-0.87618806	0.94704168	0.16351103	-1.0460079	0.98543489	0.043326656	-0.8726379	1.384059	-0.11509213	-0.91858713	1.388989	0.21128556	-0.96223874	1.4379727	0.044087837	-0.98246502	1.0275729	-0.18917621	-1.0592038	1.0544272	0.28485293	-0.76991952	0.86042041	-0.18394734	-0.93575969	0.81500274	0.33135744
65	0.256	-1.3470797	0.091873168	-0.065022173	-0.6341956	0.039987157	0.11031449	-1.3693517	0.24692431	-0.1030117	-0.78108298	0.054553069	0.14403275	-1.3511298	0.22949617	-0.0082563085	-0.77422996	0.090723406	0.051676227	-1.430894	0.29282522	-0.055938866	-0.84949369	0.031631672	0.096284747	-0.99455965	0.42453458	-0.11771915	-0.74106792	0.50935526	0.18896808	-0.99051027	0.40922585	0.0091744858	-0.76028211	0.49272646	0.064300654	-0.96401806	0.82979672	-0.12967839	-0.94382174	0.86305193	0.2426303	-0.87368792	0.91697488	-0.075558116	-0.87041362	0.94806229	0.16390401	-1.0402364	0.98664136	0.043866713	-0.86658686	1.3848732	-0.11478826	-0.91220212	1.3900467	0.21163211	-0.95660179	1.4392235	0.043484073	-0.97701618	1.0286204	-0.18839069	-1.0528766	1.0553298	0.28554615	-0.76665935	0.8590416	-0.18374951	-0.9281216	0.81631404	0.33151368
66	0.26	-1.3344441	0.094644021	-0.065129398	-0.63415249	0.039982461	0.11018677	-1.3570603	0.24964583	-0.10206559	-0.78007904	0.054640213	0.14285797	-1.3376399	0.23171711	-0.0076495612	-0.77410734	0.090677936	0.051562458	-1.4188185	0.29534678	-0.054725094	-0.84963496	0.031752899	0.09619188	-0.98155142	0.4250432	-0.11702623	-0.73776211	0.5089972	0.18871277	-0.9764383	0.40972806	0.010452761	-0.75766853	0.49243237	0.064518402	-0.95797899	0.83052721	-0.12916017	-0.93957993	0.86406611	0.24270417	-0.86798248	0.91802847	-0.075128965	-0.86458466	0.94915352	0.16423502	-1.0344616	0.98788019	0.044455136	-0.86061009	1.3857527	-0.11451998	-0.90584279	1.3911512	0.21197055	-0.950816	1.4404827	0.04317537	-0.97160022	1.0297119	-0.18758022	-1.0465722	1.0562996	0.2862588	-0.76346382	0.8577237	-0.18358965	-0.92048096	0.81768156	0.33163537
67	0.264	-1.3217027	0.097097659	-0.065037099	-0.63412438	0.039977874	0.11004946	-1.3445274	0.25204044	-0.10108839	-0.77901364	0.054737578	0.14161246	-1.3234726	0.23382988	-0.0071635494	-0.77396656	0.090629053	0.051431828	-1.4065981	0.29750929	-0.053658148	-0.84980347	0.031846846	0.096134059	-0.96860188	0.42569567	-0.11614858	-0.73447095	0.50862789	0.18856218	-0.9626791	0.41033598	0.011718319	-0.75496811	0.49215892	0.064584293	-0.95195229	0.83138247	-0.12868726	-0.93576982	0.8650653	0.24264533	-0.86226715	0.9191626	-0.074726762	-0.85868017	0.95032092	0.16452603	-1.0286935	0.98914938	0.045080385	-0.85470818	1.3866936	-0.11428857	-0.89950034	1.3923029	0.21229226	-0.94483924	1.4417426	0.043283463	-0.9662152	1.0308548	-0.18673495	-1.0402924	1.0573359	0.28698213	-0.76032994	0.8564785	-0.18345775	-0.91284379	0.81910942	0.33172135
68	0.268	-1.3088053	0.099244665	-0.064772059	-0.63411445	0.03996926	0.10990774	-1.331792	0.25411183	-0.10008487	-0.77845363	0.054798992	0.14089682	-1.309597	0.23575095	-0.0065120074	-0.77382328	0.090569877	0.051280101	-1.3942575	0.29931909	-0.052674241	-0.84997999	0.031873313	0.096162935	-0.95567136	0.42652236	-0.11520194	-0.73133709	0.50832807	0.18849455	-0.94950635	0.41107081	0.012976832	-0.75219319	0.49191853	0.064518195	-0.94590224	0.83236403	-0.12824764	-0.9318312	0.86614523	0.24258563	-0.85662286	0.92038262	-0.074355976	-0.85266952	0.95156153	0.16480977	-1.0229504	0.99046961	0.045704603	-0.84887781	1.3876881	-0.11409024	-0.89316486	1.3935056	0.21259058	-0.93875872	1.44303	0.043657384	-0.96086233	1.0320519	-0.18584663	-1.0340287	1.0584352	0.28770803	-0.75726135	0.85531413	-0.18334353	-0.90521598	0.82060303	0.33177451
69	0.272	-1.2955029	0.10116326	-0.064454943	-0.63412004	0.039955813	0.10977096	-1.3188867	0.25589682	-0.099076253	-0.77862168	0.054801635	0.14096109	-1.2962516	0.23741685	-0.0056478352	-0.77369161	0.090499604	0.051111736	-1.3818206	0.30077902	-0.051669896	-0.8501449	0.03180042	0.09632027	-0.94275148	0.42752406	-0.11422475	-0.72846587	0.50811791	0.18845639	-0.93670299	0.41196114	0.014242188	-0.74941547	0.49171308	0.064397926	-0.93977683	0.83345813	-0.12783729	-0.92727866	0.86737717	0.24265405	-0.85105925	0.92169507	-0.07400737	-0.84652318	0.95286081	0.16511013	-1.0172541	0.99186103	0.046280757	-0.84311231	1.3887373	-0.11391482	-0.88683697	1.3947613	0.21286702	-0.93266901	1.4443571	0.044098173	-0.95554898	1.0333019	-0.18491929	-1.0277746	1.0595931	0.28843484	-0.75426763	0.85423003	-0.18324108	-0.89759791	0.82216471	0.33179856
70	0.276	-1.2816246	0.10294346	-0.064180653	-0.63413536	0.039935567	0.10965129	-1.3058493	0.25743212	-0.098071214	-0.77940043	0.054767439	0.14169391	-1.2830916	0.2388215	-0.0047085418	-0.7735704	0.090426813	0.050940117	-1.3693058	0.30189257	-0.050574854	-0.85028055	0.031628556	0.096594777	-0.92982527	0.42868344	-0.1131829	-0.72584166	0.50794932	0.18842971	-0.92399501	0.41302085	0.015515986	-0.74674507	0.49154505	0.064316356	-0.93358596	0.83464573	-0.12746739	-0.92194259	0.86876508	0.24291133	-0.84555462	0.92310035	-0.073666567	-0.84024693	0.95419298	0.16543597	-1.0116235	0.99331528	0.046776871	-0.83740754	1.3898513	-0.1137544	-0.88052318	1.3960706	0.21312614	-0.92661752	1.4457155	0.044502889	-0.95028536	1.0346042	-0.1839661	-1.0215279	1.0608045	0.28916499	-0.75135993	0.85322388	-0.18314872	-0.88998657	0.82379183	0.33179402
71	0.28	-1.2672398	0.10460607	-0.063927445	-0.63415613	0.039909651	0.10955769	-1.2927317	0.25872575	-0.097044846	-0.78038657	0.054741757	0.14266447	-1.269875	0.23998098	-0.0037701459	-0.77345618	0.090363582	0.050782908	-1.3567285	0.30266436	-0.049387238	-0.85037543	0.031414133	0.09688367	-0.91690531	0.42999004	-0.11204573	-0.72338211	0.50775719	0.1884162	-0.91124799	0.41424828	0.016792202	-0.74424448	0.49141906	0.064314908	-0.92746973	0.83590963	-0.12716488	-0.91600955	0.87025151	0.24332358	-0.84008729	0.92459103	-0.073324477	-0.83393093	0.95552377	0.16578405	-1.0060625	0.99480541	0.047195779	-0.83176488	1.3910324	-0.11360669	-0.87423115	1.3974356	0.21336965	-0.92061243	1.4470979	0.044863323	-0.94507874	1.0359625	-0.18299889	-1.0152895	1.0620666	0.28990003	-0.74854889	0.85230057	-0.18306864	-0.88238117	0.82548329	0.33176362
